<svg version="1.2" xmlns="http://www.w3.org/2000/svg" viewBox="0 0 1024 1024" width="1024" height="1024">
	<title>image</title>
	<style>
		.s0 { fill: #012958 } 
		.s1 { fill: #58e2e9 } 
		.s2 { fill: #0092d5 } 
		.s3 { fill: #fa9c51 } 
	</style>
	<g id="Background">
		<path id="Path 1" class="s0" d="m352.9 76.7c-5.5 2.3-12.4 5.9-15.4 8-2.9 2.1-8.2 6.9-11.6 10.8-3.4 3.8-8.2 11.5-10.7 16.9-3.8 8.1-4.6 12.5-4.4 23.5 0.1 9.6 1.5 17.3 4.9 26.6l4.7 13.1c-14.9 18.9-24.2 31.7-30.2 40.7-5.9 8.9-15.5 24.3-21.3 34.3-5.7 9.9-14.4 26.6-19.4 37-4.9 10.4-12.5 27.9-16.8 38.8-4.3 11-10.7 30.5-14.3 43.4-3.6 12.9-7.6 31.2-9.1 40.6-1.4 9.4-3.4 26.1-4.4 37-1.1 11-1.9 29.7-1.9 41.6 0 11.9 0.8 29 1.8 37.9 1 8.9 2.7 20.3 3.8 25.3 1.1 4.9 3.8 15.5 6.1 23.5 2.3 7.9 6.7 20.9 9.9 28.9 3.2 7.9 8.3 19.3 11.3 25.2 3.1 6 9.6 17.4 14.6 25.3 5 8 13.7 20.6 19.3 28 5.7 7.5 16.1 19.9 23.2 27.6 7.1 7.7 12.9 15.2 12.9 16.7 0 1.5-2.4 9-5.3 16.7-3 7.7-9.7 20.9-14.9 29.3-5.3 8.5-15.3 22.7-22.2 31.6-6.9 9-28.6 32.5-48.1 52.4-24.5 24.9-36.8 38.6-39.3 44.2-2 4.5-4.2 11.8-4.7 16.3-0.9 6.4-0.3 9.4 2.6 14 2 3.2 6.3 7.3 9.6 9 5.2 2.9 12.2 3.2 67.2 3.2h61.5c23.7-11.7 38-21 46.9-28.2 8.9-7.1 28.1-24.9 42.6-39.4 14.4-14.5 32.7-35 40.6-45.7 7.9-10.6 20.8-30.1 28.7-43.3 7.9-13.2 18.4-30.3 23.5-38 5-7.8 9.7-13.9 10.5-13.6 0.8 0.3 3.8 6.2 6.6 13.1 2.8 7 8.6 18.6 13 25.9 4.3 7.3 13.3 19.9 19.9 28 6.6 8.1 16.6 19.6 22.2 25.6 5.5 6 10.1 10.8 10.1 10.8 0 0-8 0.7-17.7 1.4-9.7 0.8-25.3 2.7-34.7 4.2-9.5 1.5-24.5 5.2-33.5 8.2-8.9 2.9-20.6 8-25.9 11.2-5.3 3.1-13.4 9.8-18 14.9-4.7 5-11.9 15.8-16.1 23.9-4.7 9.2-7.7 17.2-7.7 21.1 0 3.5 1.6 8.8 3.6 11.8 2 2.9 6.3 6.2 9.5 7.1 3.2 1 13.2 2.7 22.1 3.7 9 1.1 40.7 2.4 70.5 3 32.4 0.6 69.8 0.2 93-1 21.3-1.2 47.3-3.3 57.8-4.8 10.4-1.4 27.1-4.6 37-7.1 9.9-2.5 23.3-6.6 29.8-9.1 6.5-2.5 16.6-7.3 22.6-10.7 5.9-3.3 16.1-10.2 22.6-15.3 6.4-5.2 15.7-14 20.5-19.7 4.9-5.6 11.3-13.9 14.4-18.4 3-4.4 8.1-13.8 11.4-20.7 3.2-7 8.1-20 10.9-28.9 4.8-15.9 5-17.3 5-61.4 0-44-0.2-45.6-5-61.5-2.7-8.9-9.7-26-15.7-37.9-5.9-11.9-16-28.6-22.3-37-6.4-8.4-19.2-22.7-28.5-31.6-9.3-9-25.1-22-35-28.9-9.9-6.9-27.8-17.6-39.7-23.6-11.9-6-32.3-14.3-45.2-18.4-12.9-4.2-31.2-9.6-40.6-12.2-9.5-2.5-22-7-28-9.9-6-2.9-15.3-9.2-20.8-14-5.4-4.9-14-14.9-18.9-22.3-4.9-7.3-11.4-19.5-14.3-26.9-4.2-10.8-5.5-17.6-6.3-32.8l-1.1-19.3c15.4-1.5 26.4-2.5 34.3-3.1 7.9-0.7 23.4-3.4 34.3-6.1 10.9-2.8 26.8-8.2 35.2-12.1 8.5-4 21.8-11.6 29.7-17 7.9-5.4 20.9-16.4 29-24.3 8.3-8.3 20.3-23 27.8-34.3 7.3-11 16.5-26.4 20.5-34.3 4-8 7.6-18.1 8-22.6 0.6-5.9-0.1-9.6-2.5-13.6-2.5-3.9-9.5-8.4-25.9-16.5-12.3-6.1-33.4-17.8-46.8-25.9-13.4-8.1-36.6-23.3-51.5-33.7-14.9-10.5-32.8-21.7-39.7-25.1-7-3.4-20.8-8.3-30.7-11-16.4-4.3-21.3-4.8-52.4-5-27.2-0.1-37.7 0.6-50.6 3.2l-16.2 3.5c-15.4-11.4-24.4-17-29.8-19.7-8.2-4.2-12.8-5.1-26.2-5.6-13.8-0.5-17.8 0-26.2 3.5z"/>
		<path id="Path 2" class="s1" d="m229.2 946.3c12.9 0.4 33.2 0.4 45.1 0 11.9-0.3 1.4-0.5-23.5-0.5-24.8 0-34.5 0.2-21.6 0.5z"/>
		<path id="Path 3" class="s2" d="m452.2 128.9c-9.4 2-22.8 6-29.8 8.9-6.9 2.9-19.1 9.5-27.1 14.7-7.9 5.2-21.7 16.8-30.7 25.8-8.9 9-23.6 26.1-32.5 38-9 11.9-20.9 28.9-26.4 37.9-5.6 8.9-14.2 24.4-19.1 34.3-5 9.9-12.8 26.6-17.3 37-4.5 10.5-11.1 27.9-14.7 38.9-3.6 10.9-8.4 28.4-10.6 38.8-3.5 16.6-4 24.6-4 64.1 0 30 0.8 49.7 2.4 58.7 1.4 7.4 4.5 22.1 7 32.5 2.4 10.4 7.3 26.7 10.8 36.1 3.5 9.5 10.5 24.5 15.5 33.4 5 9 13.4 22 18.7 28.9 5.3 7 11.3 14.7 13.4 17.2 2 2.5 4 4.1 4.4 3.6 0.5-0.5 2.5-15.1 4.5-32.5 2-17.4 4.9-41 6.4-52.4 1.5-11.4 4.5-29.7 6.5-40.6 2.1-10.9 6.6-29.2 10-40.7 3.5-11.4 10.4-29.3 15.4-39.7 4.9-10.4 14.4-27.1 21-37 6.6-9.9 18.9-25 27.4-33.5 8.5-8.5 21.5-19.5 29-24.6 7.4-5 18-11.4 23.4-14.2 5.5-2.7 15.7-6.9 22.6-9.3 7-2.3 19.1-5.5 27.1-6.9 7.9-1.5 25.4-3.5 38.8-4.6 13.4-1 32.3-3.5 42-5.4 9.7-2 23.1-5.7 29.8-8.4 6.7-2.7 16.7-7.5 22.1-10.6 5.5-3.2 16.4-11.8 24.2-19.1 7.9-7.3 17.7-18.2 22-24.1 4.2-6 12.3-18.2 17.8-27.1 5.6-9 10.2-16.9 10.1-17.6 0-0.8-4.7-3.6-10.4-6.2-5.7-2.7-20.1-10.5-32.1-17.5-11.9-6.9-37.3-23.2-56.5-36.2-19.1-13-38.2-25.7-42.4-28.3-4.2-2.5-12.1-6.4-17.5-8.5-5.5-2.2-13.6-4.8-18.1-5.7-4.5-1-21.1-1.8-37-1.8-21.7 0.1-33.2 1-46.1 3.7z"/>
		<path id="Path 4" class="s3" d="m660.8 567.3c-7.9 2.8-20.1 7.9-27.1 11.4-6.9 3.5-14 7.7-15.8 9.4-1.7 1.6-3.1 2.5-3.1 2 0-0.5-7.2 3.9-15.8 9.8-8.7 5.9-21.2 16.3-27.6 23-7.6 8-14.2 17.2-18.5 25.9-3.7 7.5-7.9 18.4-9.5 24.4-1.5 5.9-2.7 17.7-2.7 26.2 0 9.3 1.3 20.7 3.4 28.9 2 7.4 5.3 17.6 7.4 22.5 2.2 5 8.5 16 14.2 24.4 6.6 10 19.2 24.2 35.9 40.6 23.9 23.6 25.7 25.8 25.8 32.1 0 4.9-1.4 8.4-5 12.4-2.7 3.2-6.6 6.5-8.5 7.5-2 1-21.9 3.7-44.3 6-22.3 2.4-45.5 5.5-51.5 7.1-5.9 1.6-16.4 5.5-23.2 8.6-8.1 3.8-15.2 8.9-20.3 14.4-4.4 4.7-7.9 9.4-7.9 10.4 0 1.2 28.4 1.8 81.7 1.8 44.9 0 91.1-0.8 102.5-1.8 11.4-1 26.4-2.7 33.4-3.8 6.9-1.1 19.5-3.6 28-5.6 8.4-1.9 22.9-7.1 32-11.5 12.4-5.9 20.1-11.2 29.6-20.2 7.1-6.7 15.1-15.4 17.9-19.4 2.7-4 7.8-12.9 11.4-19.9 3.5-6.9 8.5-19.9 11.2-28.9 3.3-11.4 5.1-22.2 5.8-36.1 0.6-11.8 0-26.1-1.3-35.2-1.2-8.5-4.2-22.3-6.7-30.7-2.4-8.5-7.9-22.7-12.1-31.6-4.2-9-12-22.7-17.5-30.6-5.4-7.9-16.3-20.9-24.3-29-7.9-8-22.1-19.9-31.6-26.4-9.4-6.5-21.6-14.4-27.1-17.5q-9.9-5.7-17.1-5.6c-4 0-13.7 2.2-21.7 5z"/>
		<path id="Path 5" class="s1" d="m483.8 388.6c-4.9 1.8-12.7 5.1-17.1 7.3-4.5 2.3-13 7.6-19 11.8-6 4.2-15.7 12.8-21.5 19.2-5.9 6.3-15 18-20.1 26-5.2 7.9-13.3 22.1-18 31.6-4.7 9.4-11.3 25.2-14.6 35.2-3.3 9.9-8.1 29.4-10.6 43.3-2.5 13.9-7 47.2-10.1 74.1-3.1 26.8-7.2 57.7-9.2 68.6-1.9 10.9-5.6 27.2-8.1 36.1-2.6 9-6.6 21.6-9.1 28-2.4 6.5-7.6 17.8-11.5 25.3-3.9 7.4-12.6 20.8-19.3 29.8-6.8 8.9-22.8 26.9-35.7 39.9-12.9 13-29.2 28.7-36.1 34.9l-12.7 11.2c83.4-1.2 101.7-2.2 106.6-3.8 4.4-1.4 11.7-6.7 18.6-13.4 6.3-6 20.3-20.8 31.1-32.7 10.8-11.9 25.8-29.4 33.4-38.8 7.6-9.5 21.6-29 31.3-43.4 10.7-16 25.5-42 38.1-66.8 11.2-22.3 23.8-45.5 27.8-51.5 4-5.9 12.6-17.7 19.1-26.1 6.5-8.4 20-23.5 29.9-33.5 10-10 25.4-23.8 34.4-30.7 8.9-6.9 22.1-16.3 29.3-20.7 7.2-4.5 13.1-8.6 13.1-9.1 0-0.5-8-2.8-17.6-5.1-10.6-2.5-23.8-7.4-33-12.1-8.4-4.4-19.9-11.8-25.5-16.6-5.6-4.7-13.3-12.3-17.1-16.7-3.9-4.5-10.1-13-13.7-19-3.7-5.9-8.9-16.5-11.6-23.5-4.3-11-5-15.7-5.6-37.4-0.7-21.9-1.1-24.9-3.8-24.7-1.7 0-7.1 1.5-12.1 3.3z"/>
		<path id="Path 6" class="s0" d="m528.9 199.9c-2.8 2-3.5 4.6-3.5 13.2 0 8.4 0.9 12.2 4.6 17.7 2.9 4.6 7.9 8.7 13.5 11.5 7.5 3.6 10.7 4.2 19.8 3.3 6.3-0.5 14.1-2.7 18.7-5.2 4.4-2.4 11.5-8.1 15.8-12.8 4.4-4.8 8-10.5 8-12.7 0-2.2-1.4-5.5-3.2-7.2-1.7-1.8-6.6-3.8-10.8-4.6-7-1.2-8.2-0.8-13.6 4.4-3.2 3.1-7.7 6.5-9.9 7.6-2.3 1.2-5.7 1.7-7.7 1.2-2.3-0.6-4.4-3.5-5.7-7.7-1.1-3.7-2.9-7.8-4-9.1-1.2-1.3-5.7-2.3-10.2-2.3-4.5 0.1-9.8 1.3-11.8 2.7z"/>
	</g>
</svg>